<svg xmlns="http://www.w3.org/2000/svg" version="1.1" xmlns:xlink="http://www.w3.org/1999/xlink" xmlns:svgjs="http://svgjs.com/svgjs" width="1440" height="560" preserveAspectRatio="none" viewBox="0 0 1440 560">
    <g mask="url(&quot;#SvgjsMask1072&quot;)" fill="none">
        <path d="M215.598,501.171C253.508,501.066,285.884,474.341,302.484,440.259C317.242,409.959,306.424,376.537,290.861,346.642C273.531,313.353,253.034,276.015,215.598,273.357C174.934,270.47,138.15,298.348,119.227,334.456C101.542,368.201,108.808,407.759,127.874,440.743C146.92,473.691,177.541,501.276,215.598,501.171" fill="rgba(4, 220, 97, 0.4)" class="triangle-float2"></path>
        <path d="M123.755,414.833C164.533,416.172,206.691,403.786,228.48,369.291C251.627,332.647,251.191,285.297,229.152,247.976C207.468,211.256,166.356,190.005,123.755,191.945C84.152,193.749,52.796,222.095,33.77,256.875C15.6,290.089,11.556,329.889,30.296,362.785C49.213,395.993,85.558,413.579,123.755,414.833" fill="rgba(4, 220, 97, 0.4)" class="triangle-float1"></path>
        <path d="M869.898,616.67C910.253,618.62,951.083,602.085,971.639,567.303C992.513,531.984,987.3,488.152,966.884,452.567C946.361,416.796,911.136,390.409,869.898,389.97C827.953,389.524,788.366,413.117,769.271,450.466C751.584,485.059,763.747,524.996,783.869,558.231C803.113,590.015,832.785,614.877,869.898,616.67" fill="rgba(4, 220, 97, 0.4)" class="triangle-float3"></path>
        <path d="M620.902,294.609C663.374,292.948,697.444,263.824,718.881,227.122C740.543,190.034,749.475,145.833,730.223,107.438C708.927,64.967,668.367,29.634,620.902,31.717C575.788,33.697,548.823,76.807,527.028,116.356C506.268,154.026,488.643,197.286,508.685,235.343C529.812,275.459,575.598,296.381,620.902,294.609" fill="rgba(4, 220, 97, 0.4)" class="triangle-float2"></path>
        <path d="M421.142,408.271C464.44,408.561,513.864,408.339,536.628,371.507C560.126,333.487,544.051,285.455,520.541,247.443C498.46,211.741,463.118,185.268,421.142,184.785C378.364,184.293,339.961,208.575,317.701,245.109C294.423,283.314,284.348,332.195,308.303,369.979C331.097,405.933,378.572,407.986,421.142,408.271" fill="rgba(4, 220, 97, 0.4)" class="triangle-float1"></path>
        <path d="M1133.45,285.069C1148.321,284.41,1162.834,279.179,1170.8,266.604C1179.35,253.106,1181.04,236.006,1173.426,221.959C1165.464,207.271,1150.157,197.709,1133.45,197.697C1116.724,197.685,1101.991,207.566,1093.376,221.903C1084.468,236.728,1080.628,255.583,1089.893,270.187C1098.703,284.073,1117.021,285.797,1133.45,285.069" fill="rgba(4, 220, 97, 0.4)" class="triangle-float1"></path>
        <path d="M588.781,541.041C638.223,540.933,679.007,506.781,703.711,463.953C728.395,421.16,737.202,368.949,712.833,325.976C688.177,282.496,638.652,257.918,588.781,261.282C543.731,264.321,513.04,301.733,490.681,340.96C468.609,379.684,453.353,424.438,472.975,464.459C494.811,508.996,539.179,541.15,588.781,541.041" fill="rgba(4, 220, 97, 0.4)" class="triangle-float1"></path>
        <path d="M1248.969,472.635C1285.591,474.438,1325.994,468.865,1345.513,437.826C1365.977,405.286,1359.578,362.53,1338.372,330.468C1319.179,301.449,1283.721,290.191,1248.969,291.857C1217.262,293.377,1189.467,311.081,1173.275,338.384C1156.717,366.304,1151.654,400.79,1167.597,429.066C1183.793,457.791,1216.033,471.013,1248.969,472.635" fill="rgba(4, 220, 97, 0.4)" class="triangle-float1"></path>
        <path d="M117.498,438.123C146.902,440.014,173.259,419.986,187.192,394.023C200.404,369.403,198.523,339.206,183.077,315.923C169.073,294.815,142.828,288.725,117.498,288.97C92.702,289.21,66.43,295.668,54.077,317.169C41.758,338.611,50.289,364.057,61.773,385.958C74.437,410.11,90.283,436.373,117.498,438.123" fill="rgba(4, 220, 97, 0.4)" class="triangle-float1"></path>
        <path d="M126.909,637.798C176.694,638.116,231.949,632.041,257.569,589.353C283.7,545.814,266.697,491.838,240.683,448.229C215.445,405.92,176.151,371.836,126.909,370.315C75.154,368.716,26.511,396.163,0.269,440.801C-26.33,486.046,-29.271,543.553,-0.89,587.701C25.629,628.953,77.869,637.485,126.909,637.798" fill="rgba(4, 220, 97, 0.4)" class="triangle-float3"></path>
        <path d="M941.915,348.906C982.335,347.476,1014.563,319.189,1034.778,284.158C1054.984,249.143,1062.354,207.6,1044.345,171.406C1024.245,131.009,987.013,96.094,941.915,97.521C898.43,98.897,870.865,139.304,850.128,177.551C830.653,213.471,817.639,255.138,836.932,291.156C857.145,328.89,899.135,350.419,941.915,348.906" fill="rgba(4, 220, 97, 0.4)" class="triangle-float2"></path>
    </g>
    <defs>
        <mask id="SvgjsMask1072">
            <rect width="1440" height="560" fill="#ffffff"></rect>
        </mask>
        <style>
            @keyframes float1 {
                0%{transform: translate(0, 0)}
                50%{transform: translate(-10px, 0)}
                100%{transform: translate(0, 0)}
            }

            .triangle-float1 {
                animation: float1 5s infinite;
            }

            @keyframes float2 {
                0%{transform: translate(0, 0)}
                50%{transform: translate(-5px, -5px)}
                100%{transform: translate(0, 0)}
            }

            .triangle-float2 {
                animation: float2 4s infinite;
            }

            @keyframes float3 {
                0%{transform: translate(0, 0)}
                50%{transform: translate(0, -10px)}
                100%{transform: translate(0, 0)}
            }

            .triangle-float3 {
                animation: float3 6s infinite;
            }
        </style>
    </defs>
</svg>