<svg xmlns="http://www.w3.org/2000/svg" version="1.1" xmlns:xlink="http://www.w3.org/1999/xlink" xmlns:svgjs="http://svgjs.com/svgjs" width="1440" height="720" preserveAspectRatio="none" viewBox="0 0 1440 720">
    <g mask="url(&quot;#SvgjsMask1060&quot;)" fill="none">
        <path d="M-215.03 11.56 a227.31 227.31 0 1 0 454.62 0 a227.31 227.31 0 1 0 -454.62 0z" fill="rgba(46, 247, 87, 0.4)" class="triangle-float1"></path>
        <path d="M157.44 238.98 a210.15 210.15 0 1 0 420.3 0 a210.15 210.15 0 1 0 -420.3 0z" fill="rgba(46, 247, 87, 0.4)" class="triangle-float3"></path>
        <path d="M-155.7 230.31 a157.89 157.89 0 1 0 315.78 0 a157.89 157.89 0 1 0 -315.78 0z" fill="rgba(46, 247, 87, 0.4)" class="triangle-float3"></path>
        <path d="M-88.86 623.95 a178.15 178.15 0 1 0 356.3 0 a178.15 178.15 0 1 0 -356.3 0z" fill="rgba(46, 247, 87, 0.4)" class="triangle-float3"></path>
        <path d="M280.28 675.08 a165.15 165.15 0 1 0 330.3 0 a165.15 165.15 0 1 0 -330.3 0z" fill="rgba(46, 247, 87, 0.4)" class="triangle-float3"></path>
        <path d="M1194.17 473.71 a138.74 138.74 0 1 0 277.48 0 a138.74 138.74 0 1 0 -277.48 0z" fill="rgba(46, 247, 87, 0.4)" class="triangle-float2"></path>
        <path d="M-137.11 402.27 a195.03 195.03 0 1 0 390.06 0 a195.03 195.03 0 1 0 -390.06 0z" fill="rgba(46, 247, 87, 0.4)" class="triangle-float1"></path>
        <path d="M-42.32 588.04 a220.48 220.48 0 1 0 440.96 0 a220.48 220.48 0 1 0 -440.96 0z" fill="rgba(46, 247, 87, 0.4)" class="triangle-float1"></path>
        <path d="M1005.96 536.2 a173.1 173.1 0 1 0 346.2 0 a173.1 173.1 0 1 0 -346.2 0z" fill="rgba(46, 247, 87, 0.4)" class="triangle-float1"></path>
        <path d="M885.93 604.72 a232.52 232.52 0 1 0 465.04 0 a232.52 232.52 0 1 0 -465.04 0z" fill="rgba(46, 247, 87, 0.4)" class="triangle-float3"></path>
    </g>
    <defs>
        <mask id="SvgjsMask1060">
            <rect width="1440" height="720" fill="#ffffff"></rect>
        </mask>
        <style>
            @keyframes float1 {
                0%{transform: translate(0, 0)}
                50%{transform: translate(-10px, 0)}
                100%{transform: translate(0, 0)}
            }

            .triangle-float1 {
                animation: float1 5s infinite;
            }

            @keyframes float2 {
                0%{transform: translate(0, 0)}
                50%{transform: translate(-5px, -5px)}
                100%{transform: translate(0, 0)}
            }

            .triangle-float2 {
                animation: float2 4s infinite;
            }

            @keyframes float3 {
                0%{transform: translate(0, 0)}
                50%{transform: translate(0, -10px)}
                100%{transform: translate(0, 0)}
            }

            .triangle-float3 {
                animation: float3 6s infinite;
            }
        </style>
    </defs>
</svg>