<svg id="visual" viewBox="0 0 900 450" width="900" height="450" xmlns="http://www.w3.org/2000/svg" xmlns:xlink="http://www.w3.org/1999/xlink" version="1.1"><rect x="0" y="0" width="900" height="450" fill="#FFFFFF"></rect><defs><linearGradient id="grad1_0" x1="50%" y1="0%" x2="100%" y2="100%"><stop offset="10%" stop-color="#ffffff" stop-opacity="1"></stop><stop offset="90%" stop-color="#ffffff00" stop-opacity="1"></stop></linearGradient></defs><defs><linearGradient id="grad2_0" x1="0%" y1="0%" x2="50%" y2="100%"><stop offset="10%" stop-color="#ffffff" stop-opacity="1"></stop><stop offset="90%" stop-color="#ffffff" stop-opacity="1"></stop></linearGradient></defs><g transform="translate(900, 0)"><path d="M0 180C-23.5 161.7 -47 143.5 -75.5 130.8C-104 118.1 -137.6 110.9 -155.9 90C-174.1 69.1 -177.1 34.6 -180 0L0 0Z" fill="#45c5a9"></path></g><g transform="translate(0, 450)"><path d="M0 -180C29.6 -172.4 59.2 -164.7 87 -150.7C114.8 -136.6 140.7 -116.2 155.9 -90C171.1 -63.8 175.5 -31.9 180 0L0 0Z" fill="#45c5a9"></path></g></svg>